<?xml version="1.0" encoding="UTF-8"?> <svg xmlns="http://www.w3.org/2000/svg" xmlns:xlink="http://www.w3.org/1999/xlink" width="442px" height="442px" viewBox="0 0 442 442"> <!-- Generator: Sketch 48.1 (47250) - http://www.bohemiancoding.com/sketch --> <title>Group 20</title> <desc>Created with Sketch.</desc> <defs></defs> <g id="Landing-page-11-Copy" stroke="none" stroke-width="1" fill="none" fill-rule="evenodd" transform="translate(-481.000000, -2708.000000)"> <g id="Group-20" transform="translate(481.000000, 2708.000000)"> <circle id="Oval-7-Copy-2" fill="#FFFFFF" cx="221" cy="221" r="221"></circle> <g id="illustration-3" transform="translate(11.000000, 67.000000)"> <polygon id="Fill-55" fill="#FFFFFF" points="65.9583333 303 35.0416667 303 24 268 77 268"></polygon> <polygon id="Stroke-56" stroke="#1050FF" stroke-width="2" stroke-linejoin="round" points="65.9583333 303 35.0416667 303 24 268 77 268"></polygon> <polygon id="Fill-57" fill="#FFFFFF" points="381.375 303 341.625 303 335 250 388 250"></polygon> <polygon id="Stroke-58" stroke="#1050FF" stroke-width="2" stroke-linejoin="round" points="381.375 303 341.625 303 335 250 388 250"></polygon> <polygon id="Fill-59" fill="#FFFFFF" points="68 268 33 268 33 222.111111 50.5 209 68 222.111111"></polygon> <polygon id="Fill-60" fill="#FFFFFF" points="231 303 222.090909 279 190.909091 279 182 303"></polygon> <polyline id="Fill-61" fill="#FFFFFF" points="261.447917 129 312 129 312 278 101 278 101 129 155.947917 129"></polyline> <polygon id="Fill-62" fill="#FFFFFF" points="194.75 154 184 61.6 205.5 11 227 61.6 216.25 154"></polygon> <polygon id="Fill-63" fill="#CCEFFF" points="51 209 69 222.111111 69 268 51 268"></polygon> <polygon id="Fill-64" fill="#CCEFFF" points="226 290 221.979929 279 191.022283 279 187 290"></polygon> <polygon id="Fill-65" fill="#CCEFFF" points="206 11 228 61.6 217 154 206 154"></polygon> <polygon id="Fill-66" fill="#CCEFFF" points="312 129 312 250 101 250"></polygon> <polyline id="Stroke-67" stroke="#1050FF" stroke-width="2" stroke-linecap="round" stroke-linejoin="round" points="346 239 350 234.5 342 225.5 346 221"></polyline> <polyline id="Stroke-68" stroke="#1050FF" stroke-width="2" stroke-linecap="round" stroke-linejoin="round" points="362 239 366 234.5 358 225.5 362 221"></polyline> <polyline id="Stroke-69" stroke="#1050FF" stroke-width="2" stroke-linecap="round" stroke-linejoin="round" points="376 239 380 234.5 372 225.5 376 221"></polyline> <polygon id="Stroke-70" stroke="#1050FF" stroke-width="2" stroke-linejoin="round" points="213 267.428571 206.5 272 200 267.428571 200 260.571429 206.5 256 213 260.571429"></polygon> <polygon id="Stroke-71" stroke="#1050FF" stroke-width="2" stroke-linecap="round" stroke-linejoin="round" points="231 303 222.090909 279 190.909091 279 182 303"></polygon> <polygon id="Stroke-72" stroke="#1050FF" stroke-width="2" stroke-linecap="round" stroke-linejoin="round" points="68 268 33 268 33 222.111111 50.5 209 68 222.111111"></polygon> <path d="M32,233 L26,233" id="Stroke-73" stroke="#1050FF" stroke-width="2" stroke-linecap="round" stroke-linejoin="round"></path> <path d="M33,221 L29,219" id="Stroke-74" stroke="#1050FF" stroke-width="2" stroke-linecap="round" stroke-linejoin="round"></path> <path d="M32,246 L26,246" id="Stroke-75" stroke="#1050FF" stroke-width="2" stroke-linecap="round" stroke-linejoin="round"></path> <path d="M32,258 L26,258" id="Stroke-76" stroke="#1050FF" stroke-width="2" stroke-linecap="round" stroke-linejoin="round"></path> <path d="M68,233 L74,233" id="Stroke-77" stroke="#1050FF" stroke-width="2" stroke-linecap="round" stroke-linejoin="round"></path> <path d="M68,246 L74,246" id="Stroke-78" stroke="#1050FF" stroke-width="2" stroke-linecap="round" stroke-linejoin="round"></path> <path d="M68,258 L74,258" id="Stroke-79" stroke="#1050FF" stroke-width="2" stroke-linecap="round" stroke-linejoin="round"></path> <path d="M41,215 L37,211" id="Stroke-80" stroke="#1050FF" stroke-width="2" stroke-linecap="round" stroke-linejoin="round"></path> <path d="M68,221 L72,219" id="Stroke-81" stroke="#1050FF" stroke-width="2" stroke-linecap="round" stroke-linejoin="round"></path> <path d="M59,215 L63,211" id="Stroke-82" stroke="#1050FF" stroke-width="2" stroke-linecap="round" stroke-linejoin="round"></path> <path d="M26,276 L74,276" id="Stroke-83" stroke="#1050FF" stroke-width="2" stroke-linecap="round" stroke-linejoin="round"></path> <polyline id="Stroke-84" stroke="#1050FF" stroke-width="2" stroke-linecap="round" stroke-linejoin="round" points="41 259 45 252.4 41 245.8 45 239.2 41 232.6 45 226"></polyline> <polyline id="Stroke-85" stroke="#1050FF" stroke-width="2" stroke-linecap="round" stroke-linejoin="round" points="55 259 59 252.4 55 245.8 59 239.2 55 232.6 59 226"></polyline> <path d="M20,303 L402,303" id="Stroke-86" stroke="#1050FF" stroke-width="2" stroke-linecap="round" stroke-linejoin="round"></path> <path d="M413,303 L419,303" id="Stroke-87" stroke="#1050FF" stroke-width="2" stroke-linecap="round" stroke-linejoin="round"></path> <path d="M0,303 L6,303" id="Stroke-88" stroke="#1050FF" stroke-width="2" stroke-linecap="round" stroke-linejoin="round"></path> <polygon id="Fill-89" fill="#FFFFFF" points="216 73.5 207 79 198 73.5 198 62.5 207 57 216 62.5"></polygon> <polygon id="Stroke-90" stroke="#1050FF" stroke-width="2" stroke-linejoin="round" points="216 73.5 207 79 198 73.5 198 62.5 207 57 216 62.5"></polygon> <polygon id="Stroke-91" stroke="#1050FF" stroke-width="2" stroke-linecap="round" stroke-linejoin="round" points="194.75 154 184 61.6 205.5 11 227 61.6 216.25 154"></polygon> <polygon id="Fill-92" fill="#FFFFFF" points="182 174.928571 171 188 160 174.928571 171 127"></polygon> <polygon id="Stroke-93" stroke="#1050FF" stroke-width="2" stroke-linecap="round" stroke-linejoin="round" points="182 174.928571 171 188 160 174.928571 171 127"></polygon> <polygon id="Fill-94" fill="#FFFFFF" points="218 174.928571 207 188 196 174.928571 207 127"></polygon> <polygon id="Stroke-95" stroke="#1050FF" stroke-width="2" stroke-linecap="round" stroke-linejoin="round" points="218 174.928571 207 188 196 174.928571 207 127"></polygon> <polygon id="Fill-96" fill="#FFFFFF" points="253 174.928571 242 188 231 174.928571 242 127"></polygon> <polygon id="Stroke-97" stroke="#1050FF" stroke-width="2" stroke-linecap="round" stroke-linejoin="round" points="253 174.928571 242 188 231 174.928571 242 127"></polygon> <path d="M176,145 L192,114" id="Stroke-98" stroke="#1050FF" stroke-width="2" stroke-linecap="round" stroke-linejoin="round"></path> <path d="M180,167 L195,154" id="Stroke-99" stroke="#1050FF" stroke-width="2" stroke-linecap="round" stroke-linejoin="round"></path> <path d="M238,145 L222,114" id="Stroke-100" stroke="#1050FF" stroke-width="2" stroke-linecap="round" stroke-linejoin="round"></path> <path d="M232,167 L217,154" id="Stroke-101" stroke="#1050FF" stroke-width="2" stroke-linecap="round" stroke-linejoin="round"></path> <path d="M206,11 L206,0" id="Stroke-102" stroke="#1050FF" stroke-width="2" stroke-linecap="round" stroke-linejoin="round"></path> <path d="M160,176 L182,176" id="Stroke-103" stroke="#1050FF" stroke-width="2" stroke-linecap="round" stroke-linejoin="round"></path> <path d="M196,176 L218,176" id="Stroke-104" stroke="#1050FF" stroke-width="2" stroke-linecap="round" stroke-linejoin="round"></path> <path d="M231,176 L253,176" id="Stroke-105" stroke="#1050FF" stroke-width="2" stroke-linecap="round" stroke-linejoin="round"></path> <polygon id="Fill-106" fill="#CCEFFF" points="362 288 375 274.909091 368.5 264 362 270.545455 355.5 264 349 274.909091"></polygon> <polygon id="Stroke-107" stroke="#1050FF" stroke-width="2" stroke-linejoin="round" points="362 288 375 274.909091 368.5 264 362 270.545455 355.5 264 349 274.909091"></polygon> <polyline id="Stroke-108" stroke="#1050FF" stroke-width="2" stroke-linecap="round" stroke-linejoin="round" points="386.243594 264 403 264 392.18802 290 383 290"></polyline> <path d="M206,200 L206,213" id="Stroke-109" stroke="#1050FF" stroke-width="2" stroke-linecap="round" stroke-linejoin="round"></path> <path d="M206,221 L206,225" id="Stroke-110" stroke="#1050FF" stroke-width="2" stroke-linecap="round" stroke-linejoin="round"></path> <path d="M215,195 L215,208" id="Stroke-111" stroke="#1050FF" stroke-width="2" stroke-linecap="round" stroke-linejoin="round"></path> <path d="M215,217 L215,221" id="Stroke-112" stroke="#1050FF" stroke-width="2" stroke-linecap="round" stroke-linejoin="round"></path> <path d="M198,195 L198,208" id="Stroke-113" stroke="#1050FF" stroke-width="2" stroke-linecap="round" stroke-linejoin="round"></path> <path d="M198,217 L198,221" id="Stroke-114" stroke="#1050FF" stroke-width="2" stroke-linecap="round" stroke-linejoin="round"></path> <path d="M206,235 L206,237" id="Stroke-115" stroke="#1050FF" stroke-width="2" stroke-linecap="round" stroke-linejoin="round"></path> <path d="M215,231 L215,233" id="Stroke-116" stroke="#1050FF" stroke-width="2" stroke-linecap="round" stroke-linejoin="round"></path> <path d="M198,231 L198,233" id="Stroke-117" stroke="#1050FF" stroke-width="2" stroke-linecap="round" stroke-linejoin="round"></path> <path d="M171,200 L171,213" id="Stroke-118" stroke="#1050FF" stroke-width="2" stroke-linecap="round" stroke-linejoin="round"></path> <path d="M171,221 L171,225" id="Stroke-119" stroke="#1050FF" stroke-width="2" stroke-linecap="round" stroke-linejoin="round"></path> <path d="M180,195 L180,208" id="Stroke-120" stroke="#1050FF" stroke-width="2" stroke-linecap="round" stroke-linejoin="round"></path> <path d="M180,217 L180,221" id="Stroke-121" stroke="#1050FF" stroke-width="2" stroke-linecap="round" stroke-linejoin="round"></path> <path d="M162,195 L162,208" id="Stroke-122" stroke="#1050FF" stroke-width="2" stroke-linecap="round" stroke-linejoin="round"></path> <path d="M162,217 L162,221" id="Stroke-123" stroke="#1050FF" stroke-width="2" stroke-linecap="round" stroke-linejoin="round"></path> <path d="M171,235 L171,237" id="Stroke-124" stroke="#1050FF" stroke-width="2" stroke-linecap="round" stroke-linejoin="round"></path> <path d="M180,231 L180,233" id="Stroke-125" stroke="#1050FF" stroke-width="2" stroke-linecap="round" stroke-linejoin="round"></path> <path d="M162,231 L162,233" id="Stroke-126" stroke="#1050FF" stroke-width="2" stroke-linecap="round" stroke-linejoin="round"></path> <path d="M241,200 L241,213" id="Stroke-127" stroke="#1050FF" stroke-width="2" stroke-linecap="round" stroke-linejoin="round"></path> <path d="M241,221 L241,225" id="Stroke-128" stroke="#1050FF" stroke-width="2" stroke-linecap="round" stroke-linejoin="round"></path> <path d="M250,195 L250,208" id="Stroke-129" stroke="#1050FF" stroke-width="2" stroke-linecap="round" stroke-linejoin="round"></path> <path d="M250,217 L250,221" id="Stroke-130" stroke="#1050FF" stroke-width="2" stroke-linecap="round" stroke-linejoin="round"></path> <path d="M233,195 L233,208" id="Stroke-131" stroke="#1050FF" stroke-width="2" stroke-linecap="round" stroke-linejoin="round"></path> <path d="M233,217 L233,221" id="Stroke-132" stroke="#1050FF" stroke-width="2" stroke-linecap="round" stroke-linejoin="round"></path> <path d="M241,235 L241,237" id="Stroke-133" stroke="#1050FF" stroke-width="2" stroke-linecap="round" stroke-linejoin="round"></path> <path d="M250,231 L250,233" id="Stroke-134" stroke="#1050FF" stroke-width="2" stroke-linecap="round" stroke-linejoin="round"></path> <path d="M233,231 L233,233" id="Stroke-135" stroke="#1050FF" stroke-width="2" stroke-linecap="round" stroke-linejoin="round"></path> <polyline id="Stroke-136" stroke="#1050FF" stroke-width="2" stroke-linecap="round" stroke-linejoin="round" points="261.447917 129 312 129 312 278 101 278 101 129 155.947917 129"></polyline> <path d="M101,250 L312,250" id="Stroke-137" stroke="#1050FF" stroke-width="2" stroke-linecap="round" stroke-linejoin="round"></path> </g> </g> </g> </svg> 